<?xml version="1.0" encoding="UTF-8"?>
<svg id="Layer_1" data-name="Layer 1" xmlns="http://www.w3.org/2000/svg" viewBox="0 0 3526.68 788.41">
  <path d="M247.3,785.22h-80.89c-125.1-.62-179.48-50.79-163.77-150.2l19.54-97.71h222.03l-9.85,49.24c-1.93,11.58,6.02,17.29,23.82,17.29h25.39l-36.27,181.38Z" fill="#d8b982" fill-rule="evenodd"/>
  <path d="M3283.41,564.92l-.76.94,2.81.47.18-.94c.51-.62.21-1.09-.89-1.4l-1.34.94h0ZM3062.47,785.49h-224.39s44.24-233.34,44.24-233.34h-1.55s94.81-500.04,94.81-500.04h225.94l-139.05,733.39h0ZM3193.48,235.25l34.72-183.15h126.9c131.81.62,187.66,53.93,167.6,159.77l-34.22,180.5c-16.9,89.16-66.24,139.2-148.01,150.11l99.41,243.94h-251.08l-70.11-156.65,45.81-241.6h70.22c19.34,0,31.23-13.72,35.63-41l16.99-89.63c3.19-14.81-4.67-22.29-23.63-22.29h-70.22Z" fill="#d8b982" fill-rule="evenodd"/>
  <path d="M2502.42,601.4h315.11l-34.31,180.97h-315.11l34.31-180.97h0ZM2606.57,52.1h315.11s-34.28,180.81-34.28,180.81h-315.11s34.28-180.81,34.28-180.81h0ZM2441.42,782.37h-227.68l138.45-730.27h227.68s-51.95,274.03-51.95,274.03h239.29s-34.28,180.81-34.28,180.81h-239.29s-52.22,275.43-52.22,275.43Z" fill="#d8b982" fill-rule="evenodd"/>
  <path d="M1812.61,782.37h-225.94L1725.12,52.1h225.94l-138.46,730.27h0ZM1943.03,235.25l34.72-183.15h126.9c131.81.62,187.66,53.93,167.6,159.77l-34.22,180.5c-20.07,105.84-95.94,159.15-227.6,159.77h-127.48s31.09-163.98,31.09-163.98h70.22c19.34,0,31.23-13.72,35.63-41l16.99-89.63c3.19-14.81-4.67-22.29-23.63-22.29h-70.22Z" fill="#d8b982" fill-rule="evenodd"/>
  <path d="M1538.42,294.69c-1.93,0-3.68-.84-4.95-2.2-1.27-1.35-2.05-3.21-2.05-5.26v-14.73c-31.46-1.75-59.79-15.23-80.69-36.13-21.25-21.25-34.82-50.18-36.21-82.27h-21.62c-2.08,0-3.98-.76-5.35-1.98-1.39-1.23-2.24-2.92-2.24-4.78s.86-3.55,2.24-4.78c1.38-1.22,3.27-1.98,5.35-1.98h21.76c2-31.03,15.4-58.95,36.07-79.62,20.9-20.9,49.23-34.38,80.69-36.13V7.46c0-2.04.78-3.9,2.05-5.26C1534.74.84,1536.49,0,1538.42,0c1.92,0,3.68.84,4.95,2.21,1.27,1.35,2.05,3.21,2.05,5.25v17.38c31.46,1.75,59.79,15.23,80.69,36.13,20.66,20.66,34.07,48.59,36.07,79.62h23.86c2.08,0,3.97.76,5.35,1.98,1.39,1.23,2.24,2.92,2.24,4.78s-.86,3.55-2.24,4.78c-1.38,1.22-3.27,1.98-5.35,1.98h-23.72c-1.38,32.09-14.96,61.02-36.21,82.27-20.9,20.9-49.23,34.38-80.69,36.13v14.73c0,2.04-.79,3.9-2.05,5.26-1.28,1.36-3.03,2.2-4.95,2.2h0ZM1531.41,257.91v-45.78c-14.81-1.62-28.12-8.33-38.12-18.34-10.36-10.36-17.18-24.25-18.49-39.7h-45.71c1.38,28.02,13.34,53.31,31.97,71.93,18.28,18.28,42.96,30.14,70.36,31.88h0ZM1429.25,140.59h45.83c1.82-14.38,8.45-27.28,18.21-37.05,10.01-10.01,23.31-16.71,38.12-18.34v-45.78c-27.39,1.74-52.08,13.6-70.36,31.88-18.04,18.04-29.82,42.32-31.8,69.28h0ZM1545.42,39.43v45.78c14.81,1.62,28.11,8.33,38.12,18.34,9.76,9.76,16.39,22.67,18.21,37.05h45.83c-1.98-26.96-13.77-51.25-31.8-69.28-18.27-18.27-42.96-30.14-70.36-31.88h0ZM1647.74,154.1h-45.71c-1.31,15.44-8.13,29.34-18.49,39.69-10.01,10.01-23.31,16.71-38.12,18.34v45.78c27.39-1.74,52.08-13.6,70.35-31.88,18.63-18.63,30.59-43.91,31.97-71.93h0ZM1531.41,199.87v-31.24c2.19.77,4.55,1.19,7.01,1.19s4.81-.42,7.01-1.19v31.24c11.45-1.56,21.72-6.88,29.52-14.68,8.15-8.15,13.6-19.01,14.87-31.09h-30.95c.46-1.73.7-3.55.7-5.43,0-2.86-.57-5.59-1.6-8.08h31.5c-1.74-11.02-6.97-20.89-14.52-28.44-7.8-7.8-18.07-13.12-29.52-14.68v31.25c-2.19-.77-4.55-1.19-7.01-1.19-2.46,0-4.81.42-7.01,1.19v-31.25c-11.45,1.56-21.72,6.88-29.52,14.68-7.55,7.55-12.78,17.43-14.52,28.44h31.5c-1.03,2.49-1.6,5.22-1.6,8.08,0,1.88.25,3.7.7,5.43h-30.95c1.27,12.08,6.72,22.94,14.87,31.09,7.8,7.8,18.07,13.12,29.52,14.68Z" fill="#d8b982" fill-rule="evenodd"/>
  <path d="M1538.42,184.04c-9.75,0-18.6-3.97-25-10.37-6.4-6.4-10.37-15.25-10.37-25s3.97-18.6,10.37-25c6.4-6.4,15.25-10.37,25-10.37,9.75,0,18.59,3.97,25,10.37,6.4,6.4,10.37,15.25,10.37,25,0,9.75-3.97,18.6-10.37,25-6.4,6.4-15.25,10.37-25,10.37Z" fill="#d8b982" fill-rule="evenodd"/>
  <path d="M1559.56,148.67c0,11.68-9.47,21.15-21.14,21.15s-21.14-9.47-21.14-21.15,9.47-21.14,21.14-21.14,21.14,9.47,21.14,21.14Z" fill="#ea1f27" fill-rule="evenodd"/>
  <path d="M1250.07,765.18l-3.33,16.67h-178.65L739.9,55.57h190.96l319.21,709.61h0ZM878.15,452.75l-152.28-338.36-133.47,667.47h219.94l65.81-329.1h0ZM1107.17,380.82l152.31,337.28L1391.96,55.57h-219.76l-65.04,325.24h0Z" fill="#d8b982" fill-rule="evenodd"/>
  <path d="M417.96,62.49h70.47c129.08.62,183.12,53.41,162.16,158.22l-17.75,88.76h-222.03l9.79-48.93c1.91-11.42-6.05-17.13-23.85-17.13h-14.97s36.18-180.91,36.18-180.91Z" fill="#d8b982" fill-rule="evenodd"/>
  <path d="M308.14,603.84h14.97c18.57,0,29.14-7.41,31.73-22.23l9.85-49.24c1.91-11.42-6.05-17.13-23.85-17.13h-122.57c-124.91-.62-179.48-50.78-163.77-150.2l28.86-144.33c20.96-104.81,96.12-157.6,225.44-158.22h81.46s-36.18,180.91-36.18,180.91h-25.39c-18.57,0-29.14,7.41-31.69,22.07l-10.4,52.02c-1.87,11.27,5.95,16.67,23.44,16.36h122.57c128.26.93,183.05,50.94,164.18,150.04l-28.58,142.94c-20.99,104.97-95.96,157.76-225.28,158.38h-71.04l36.27-181.38Z" fill="#d8b982" fill-rule="evenodd"/>
  <path d="M1303.26,788.41l106.72-532.59c59.13,66.05,164.86,65.39,223.09-1.93l-106.61,534.52h-223.19Z" fill="#d8b982" fill-rule="evenodd"/>
</svg>